<svg width="18" height="18" viewBox="0 0 18 18" fill="none" xmlns="http://www.w3.org/2000/svg">
<path d="M14.625 7.875H13.5V4.5C13.5 2.01874 11.4813 0 9 0C6.51874 0 4.5 2.01874 4.5 4.5V7.875H3.375C2.75368 7.875 2.25 8.37865 2.25 9V16.875C2.25 17.4963 2.75368 18 3.375 18H14.625C15.2463 18 15.75 17.4963 15.75 16.875V9C15.75 8.37865 15.2463 7.875 14.625 7.875ZM9.5625 13.3439V14.625C9.5625 14.9356 9.31068 15.1875 9 15.1875C8.68932 15.1875 8.4375 14.9356 8.4375 14.625V13.3439C8.10267 13.1491 7.875 12.7903 7.875 12.375C7.875 11.7536 8.37868 11.25 9 11.25C9.62132 11.25 10.125 11.7536 10.125 12.375C10.125 12.7904 9.89733 13.1491 9.5625 13.3439ZM6.75 7.875V4.5C6.75 3.25937 7.75937 2.25 9 2.25C10.2406 2.25 11.25 3.25937 11.25 4.5V7.875H6.75Z" fill="#111111"/>
</svg>
